<svg xmlns="http://www.w3.org/2000/svg" xmlns:xlink="http://www.w3.org/1999/xlink"><symbol id="icon-close" viewBox="0 0 18 18"><path d="M18 1.3L16.7 0 9 7.7 1.3 0 0 1.3 7.7 9 0 16.7 1.3 18 9 10.3l7.7 7.7 1.3-1.3L10.3 9z"/></symbol><symbol id="icon-face" viewBox="0 0 8 19"><g><g><path d="M1.73 3.68v2.615H0v3.199h1.73V19H5.28V9.494h2.384s.223-1.533.331-3.21H5.295V4.095c0-.326.387-.766.77-.766H8V0H5.369c-3.728 0-3.64 3.202-3.64 3.68z"/></g></g></symbol><symbol id="icon-fb-mobile" viewBox="0 0 10 19"><path d="M7.1 19H2v-8.8H0V5.8h1.9c-.1-2 .2-3.4 1.1-4.4C3.8.5 5 .1 6.5 0H10v4.2H7.2c-.1.2-.2.8-.2 1.6h3v4.4H7.1V19zm-4-1h2.8V9.1h2.9V6.8H5.9v-.5c0-1.4 0-2.6.7-3.1l.1-.1h2.1V1H6.5c-1.2.1-2 .4-2.6 1-.8.8-1 2.3-.8 4.2l.1.6H1.1v2.3h2V18z"/></symbol><symbol id="icon-fb" viewBox="34.789 -4.709 13.518 27.75"><path d="M44.32 23.041h-6.816V10.137h-2.715V3.763h2.629c-.202-2.887.298-5 1.519-6.444 1.039-1.229 2.583-1.911 4.588-2.026l4.782-.001v6.15h-3.755c-.166.315-.251 1.093-.252 2.321h3.978v6.375H44.32v12.903zm-5.316-1.5h3.816V8.637h3.957V5.263h-3.953l-.016-.734c-.044-2.04.002-3.784 1.007-4.46l.19-.127h2.801v-3.15h-3.239c-1.557.091-2.711.581-3.485 1.496-1.041 1.231-1.41 3.298-1.099 6.144l.092.832h-2.786v3.375h2.715v12.902z"/></symbol><symbol id="icon-inst" viewBox="0 0 15 15"><g><g><path d="M13.075-.001C14.134-.001 15 .783 15 1.924v11.15C15 14.217 14.134 15 13.075 15H1.925c-1.06 0-1.926-.784-1.926-1.925V1.924C0 .783.865-.001 1.925-.001zM10.252 2.34v1.616c0 .372.303.676.675.676h1.695a.677.677 0 0 0 .676-.676V2.341a.677.677 0 0 0-.676-.676h-1.695a.677.677 0 0 0-.675.676zm1.733 4.002c.124.408.192.84.192 1.287 0 2.495-2.088 4.518-4.663 4.518S2.851 10.125 2.851 7.63c0-.447.068-.88.193-1.287H1.666v6.336c0 .329.269.597.597.597h10.446a.598.598 0 0 0 .596-.597V6.343zM7.514 4.548C5.85 4.548 4.5 5.855 4.5 7.467s1.35 2.92 3.013 2.92c1.664 0 3.013-1.308 3.013-2.92 0-1.612-1.349-2.92-3.013-2.92z"/></g></g></symbol><symbol id="icon-next-arrow" viewBox="0 0 7 11"><g><g><path d="M6.748 6.03l-5.284 4.72c-.336.301-.88.301-1.216 0a.712.712 0 0 1 0-1.087l4.674-4.177L.248 1.31a.712.712 0 0 1 0-1.087c.336-.3.88-.3 1.217 0l5.283 4.721c.168.15.252.346.252.543a.726.726 0 0 1-.252.543z"/></g></g></symbol><symbol id="icon-odnok" viewBox="0 0 12 19"><g><g><path d="M5.016 13.382c-1.55-.153-2.946-.516-4.142-1.405-.149-.11-.302-.218-.437-.341-.524-.478-.577-1.025-.162-1.59.354-.482.949-.611 1.567-.334.12.054.234.12.343.193 2.23 1.456 5.292 1.496 7.53.065a2.07 2.07 0 0 1 .733-.36c.534-.13 1.032.056 1.318.5.328.507.324 1.002-.08 1.396-.618.603-1.363 1.04-2.19 1.345-.781.288-1.638.433-2.485.53.128.132.188.197.268.273 1.15 1.1 2.307 2.194 3.454 3.296.39.376.472.842.257 1.279-.235.478-.762.791-1.278.758-.328-.022-.583-.176-.81-.393-.868-.831-1.753-1.646-2.604-2.493-.248-.246-.367-.2-.585.014-.874.855-1.762 1.697-2.655 2.534-.401.376-.879.444-1.344.23-.494-.228-.809-.708-.785-1.19.017-.327.186-.576.421-.8 1.14-1.08 2.275-2.164 3.411-3.247.076-.072.146-.148.255-.26zm.944-3.765C3.196 9.607.93 7.43.946 4.798.96 2.138 3.23-.007 6.02.001c2.797.007 5.042 2.182 5.028 4.87-.014 2.626-2.296 4.755-5.089 4.746zm2.513-4.813C8.468 3.498 7.373 2.458 6 2.456c-1.383-.001-2.488 1.058-2.477 2.377.01 1.301 1.114 2.334 2.49 2.33 1.371-.005 2.463-1.052 2.459-2.359z"/></g></g></symbol><symbol id="icon-prev-arrow" viewBox="0 0 7 11"><g><g><path d="M.252 4.982L5.535.248a.933.933 0 0 1 1.217 0 .716.716 0 0 1 0 1.09l-4.675 4.19 4.675 4.189a.716.716 0 0 1 0 1.09c-.336.3-.881.3-1.217 0L.252 6.073A.73.73 0 0 1 0 5.527a.73.73 0 0 1 .252-.545z"/></g></g></symbol><symbol id="icon-right-arrow-long" viewBox="0 0 24.2 11"><path d="M17.6 0l6.6 5.5-6.6 5.5V6.6H0V4.4h17.6z"/></symbol><symbol id="icon-twi" viewBox="0 0 16 13"><g><g><path d="M15.559.24a6.602 6.602 0 0 1-2.086.797A3.283 3.283 0 0 0 7.88 4.03 9.319 9.319 0 0 1 1.114.6a3.26 3.26 0 0 0-.443 1.65c0 1.139.58 2.144 1.46 2.731A3.276 3.276 0 0 1 .643 4.57v.042a3.286 3.286 0 0 0 2.632 3.218 3.302 3.302 0 0 1-1.482.056 3.288 3.288 0 0 0 3.065 2.28A6.588 6.588 0 0 1 .783 11.57c-.265 0-.526-.016-.783-.045a9.296 9.296 0 0 0 5.032 1.474c6.037 0 9.338-5.001 9.338-9.34l-.01-.425c.643-.46 1.2-1.039 1.64-1.696-.589.26-1.22.438-1.885.517A3.301 3.301 0 0 0 15.56.24z"/></g></g></symbol></svg>