<svg xmlns="http://www.w3.org/2000/svg" width="15" height="15" viewBox="0 0 15 15"><g><g><path  d="M13.075-.001C14.134-.001 15 .783 15 1.924v11.15C15 14.217 14.134 15 13.075 15H1.925c-1.06 0-1.926-.784-1.926-1.925V1.924C0 .783.865-.001 1.925-.001zM10.252 2.34v1.616c0 .372.303.676.675.676h1.695a.677.677 0 0 0 .676-.676V2.341a.677.677 0 0 0-.676-.676h-1.695a.677.677 0 0 0-.675.676zm1.733 4.002c.124.408.192.84.192 1.287 0 2.495-2.088 4.518-4.663 4.518S2.851 10.125 2.851 7.63c0-.447.068-.88.193-1.287H1.666v6.336c0 .329.269.597.597.597h10.446a.598.598 0 0 0 .596-.597V6.343zM7.514 4.548C5.85 4.548 4.5 5.855 4.5 7.467s1.35 2.92 3.013 2.92c1.664 0 3.013-1.308 3.013-2.92 0-1.612-1.349-2.92-3.013-2.92z"/></g></g></svg>
